<svg width="206" height="24" viewBox="0 0 206 24" fill="none" xmlns="http://www.w3.org/2000/svg">
<path d="M0.96 17.0482C0.864 17.0482 0.794667 17.0109 0.752 16.9362C0.709333 16.8616 0.688 16.7816 0.688 16.6962C0.698667 16.5149 0.741333 16.4136 0.816 16.3922C0.890667 16.3709 0.981333 16.3602 1.088 16.3602C1.42933 16.3602 1.66933 16.3016 1.808 16.1842C1.94667 16.0562 2.032 15.9016 2.064 15.7202C2.10667 15.5282 2.128 15.3309 2.128 15.1282V8.77624C2.128 8.57358 2.10667 8.38158 2.064 8.20024C2.032 8.00824 1.94667 7.85358 1.808 7.73624C1.66933 7.60824 1.42933 7.54424 1.088 7.54424C0.981333 7.54424 0.890667 7.53358 0.816 7.51224C0.741333 7.49091 0.698667 7.38958 0.688 7.20824C0.688 7.12291 0.709333 7.04291 0.752 6.96824C0.794667 6.89358 0.864 6.85624 0.96 6.85624C1.30133 6.86691 1.62133 6.87758 1.92 6.88824C2.22933 6.89891 2.544 6.90424 2.864 6.90424H7.488C7.60533 6.90424 7.70133 6.93091 7.776 6.98424C7.86133 7.03758 7.904 7.13891 7.904 7.28824L7.952 9.52824C7.952 9.63491 7.89867 9.71491 7.792 9.76824C7.696 9.82158 7.60533 9.84824 7.52 9.84824C7.40267 9.84824 7.29067 9.82691 7.184 9.78424C7.088 9.73091 7.02933 9.65624 7.008 9.56024C6.944 9.08024 6.85867 8.69624 6.752 8.40824C6.656 8.10958 6.50667 7.89624 6.304 7.76824C6.112 7.62958 5.82933 7.55491 5.456 7.54424H3.712V11.7042H6.576C6.66133 11.7149 6.72533 11.7576 6.768 11.8322C6.81067 11.9069 6.832 11.9869 6.832 12.0722C6.832 12.1469 6.81067 12.2216 6.768 12.2962C6.72533 12.3602 6.66133 12.3922 6.576 12.3922H3.712V15.1282C3.72267 15.3309 3.744 15.5282 3.776 15.7202C3.808 15.9016 3.89333 16.0562 4.032 16.1842C4.18133 16.3016 4.42133 16.3602 4.752 16.3602C4.85867 16.3602 4.94933 16.3709 5.024 16.3922C5.09867 16.4136 5.14133 16.5149 5.152 16.6962C5.152 16.7816 5.13067 16.8616 5.088 16.9362C5.04533 17.0109 4.97067 17.0482 4.864 17.0482C4.18133 17.0162 3.52 17.0002 2.88 17.0002C2.56 17.0002 2.24533 17.0002 1.936 17.0002C1.62667 17.0109 1.30133 17.0269 0.96 17.0482ZM12.1656 17.1922C11.3443 17.1922 10.651 17.0162 10.0856 16.6642C9.53096 16.3122 9.11496 15.8429 8.83763 15.2562C8.56029 14.6696 8.42163 14.0296 8.42163 13.3362C8.42163 12.8669 8.50163 12.4136 8.66163 11.9762C8.83229 11.5282 9.07229 11.1229 9.38163 10.7602C9.69096 10.3869 10.0643 10.0936 10.5016 9.88024C10.939 9.66691 11.435 9.56024 11.9896 9.56024C12.971 9.56024 13.707 9.81624 14.1976 10.3282C14.699 10.8296 14.987 11.4696 15.0616 12.2482C15.0616 12.6216 14.955 12.8669 14.7416 12.9842C14.539 13.1016 14.2723 13.1602 13.9416 13.1602H10.0536C10.0536 13.7789 10.139 14.3336 10.3096 14.8242C10.4803 15.3042 10.747 15.6882 11.1096 15.9762C11.483 16.2536 11.9736 16.3922 12.5816 16.3922C13.0296 16.3922 13.4136 16.2962 13.7336 16.1042C14.0536 15.9122 14.363 15.5762 14.6616 15.0962C14.747 14.9896 14.8643 14.9842 15.0136 15.0802C15.099 15.1229 15.1523 15.1922 15.1736 15.2882C15.195 15.3736 15.1843 15.4482 15.1416 15.5122C14.811 16.0349 14.395 16.4456 13.8936 16.7442C13.3923 17.0429 12.8163 17.1922 12.1656 17.1922ZM10.0536 12.5522H12.6616C12.9176 12.5522 13.1203 12.5042 13.2696 12.4082C13.4296 12.3016 13.515 12.1256 13.5256 11.8802C13.5256 11.4216 13.3976 11.0162 13.1416 10.6642C12.8963 10.3016 12.5123 10.1202 11.9896 10.1202C11.4563 10.1202 11.0083 10.3336 10.6456 10.7602C10.2936 11.1869 10.0963 11.7842 10.0536 12.5522ZM16.5809 17.0482C16.5062 17.0482 16.4422 17.0162 16.3889 16.9522C16.3462 16.8776 16.3249 16.8029 16.3249 16.7282C16.3462 16.5682 16.3889 16.4829 16.4529 16.4722C16.5169 16.4509 16.6022 16.4402 16.7089 16.4402C17.0075 16.4402 17.2102 16.3922 17.3169 16.2962C17.4235 16.1896 17.4822 16.0509 17.4929 15.8802C17.5142 15.7096 17.5249 15.5336 17.5249 15.3522V11.6882C17.5249 11.4962 17.5142 11.3202 17.4929 11.1602C17.4822 10.9896 17.4235 10.8562 17.3169 10.7602C17.2102 10.6536 17.0075 10.6002 16.7089 10.6002C16.6129 10.6002 16.5222 10.5896 16.4369 10.5682C16.3622 10.5362 16.3249 10.4402 16.3249 10.2802C16.3249 10.1202 16.4102 10.0242 16.5809 9.99224C17.0715 9.91758 17.4449 9.84291 17.7009 9.76824C17.9675 9.69358 18.1702 9.62958 18.3089 9.57624C18.4475 9.52291 18.5702 9.49091 18.6769 9.48024C18.7622 9.46958 18.8315 9.48558 18.8849 9.52824C18.9489 9.57091 18.9809 9.65624 18.9809 9.78424V15.3522C18.9809 15.5336 18.9862 15.7096 18.9969 15.8802C19.0182 16.0509 19.0822 16.1896 19.1889 16.2962C19.3062 16.3922 19.5142 16.4402 19.8129 16.4402C19.9089 16.4402 19.9889 16.4509 20.0529 16.4722C20.1275 16.4829 20.1702 16.5682 20.1809 16.7282C20.1809 16.8029 20.1595 16.8776 20.1169 16.9522C20.0742 17.0162 20.0102 17.0482 19.9249 17.0482C19.6155 17.0269 19.3275 17.0109 19.0609 17.0002C18.8049 17.0002 18.5329 17.0002 18.2449 17.0002C17.9569 17.0002 17.6849 17.0002 17.4289 17.0002C17.1729 17.0109 16.8902 17.0269 16.5809 17.0482ZM18.1649 7.70424C17.8662 7.70424 17.6155 7.61358 17.4129 7.43224C17.2102 7.24024 17.1089 7.00558 17.1089 6.72824C17.1089 6.48291 17.2315 6.26424 17.4769 6.07224C17.7222 5.88024 17.9995 5.78424 18.3089 5.78424C18.5755 5.78424 18.7942 5.88024 18.9649 6.07224C19.1355 6.25358 19.2209 6.48824 19.2209 6.77624C19.2209 7.03224 19.1195 7.25091 18.9169 7.43224C18.7142 7.61358 18.4635 7.70424 18.1649 7.70424ZM23.9248 17.2722C23.6048 17.2722 23.3008 17.1922 23.0128 17.0322C22.7248 16.8722 22.4848 16.6269 22.2928 16.2962C22.1114 15.9656 22.0208 15.5496 22.0208 15.0482V10.3442L21.0928 10.3762C21.0181 10.3762 20.9594 10.3496 20.9168 10.2962C20.8848 10.2322 20.8688 10.1629 20.8688 10.0882C20.8688 9.87491 20.9434 9.75224 21.0928 9.72024C21.4874 9.64558 21.7861 9.52291 21.9888 9.35224C22.1914 9.17091 22.3461 8.95758 22.4528 8.71224C22.5701 8.46691 22.6768 8.20024 22.7728 7.91224C22.8048 7.82691 22.8528 7.77358 22.9168 7.75224C22.9808 7.72024 23.0501 7.70424 23.1248 7.70424C23.1888 7.70424 23.2581 7.72024 23.3328 7.75224C23.4181 7.78424 23.4608 7.84291 23.4608 7.92824L23.3488 9.75224L25.2208 9.64024C25.3168 9.62958 25.3808 9.65624 25.4128 9.72024C25.4448 9.78424 25.4608 9.85891 25.4608 9.94424C25.4608 10.0509 25.4394 10.1576 25.3968 10.2642C25.3648 10.3709 25.3221 10.4242 25.2688 10.4242L23.4768 10.3762V15.2402C23.4768 15.5496 23.5408 15.8322 23.6688 16.0882C23.8074 16.3442 24.0528 16.4722 24.4048 16.4722C24.5221 16.4722 24.6554 16.4616 24.8048 16.4402C24.9541 16.4189 25.1141 16.3709 25.2848 16.2962C25.3274 16.2749 25.3701 16.2589 25.4128 16.2482C25.4554 16.2269 25.4981 16.2162 25.5408 16.2162C25.6261 16.2162 25.6901 16.2536 25.7328 16.3282C25.7754 16.3922 25.8128 16.4616 25.8448 16.5362C25.8768 16.6322 25.8501 16.7069 25.7648 16.7602C25.4341 16.9736 25.1301 17.1122 24.8528 17.1762C24.5754 17.2402 24.2661 17.2722 23.9248 17.2722ZM30.9153 17.1922C30.1686 17.1922 29.5126 17.0162 28.9473 16.6642C28.3926 16.3122 27.9606 15.8536 27.6513 15.2882C27.3419 14.7229 27.1873 14.1202 27.1873 13.4802C27.1873 12.8509 27.2993 12.2909 27.5233 11.8002C27.7473 11.3096 28.0406 10.8989 28.4033 10.5682C28.7766 10.2376 29.1819 9.98691 29.6193 9.81624C30.0566 9.64558 30.4886 9.56024 30.9153 9.56024C31.6619 9.56024 32.3126 9.73624 32.8673 10.0882C33.4326 10.4402 33.8699 10.8989 34.1793 11.4642C34.4886 12.0296 34.6433 12.6322 34.6433 13.2722C34.6433 13.9016 34.5259 14.4616 34.2913 14.9522C34.0673 15.4429 33.7686 15.8536 33.3953 16.1842C33.0326 16.5149 32.6326 16.7656 32.1953 16.9362C31.7579 17.1069 31.3313 17.1922 30.9153 17.1922ZM30.9153 16.6002C31.4379 16.6002 31.8486 16.4456 32.1473 16.1362C32.4566 15.8269 32.6753 15.4216 32.8033 14.9202C32.9419 14.4082 33.0113 13.8589 33.0113 13.2722C33.0113 12.7069 32.9419 12.1896 32.8033 11.7202C32.6646 11.2509 32.4406 10.8722 32.1313 10.5842C31.8219 10.2962 31.4166 10.1522 30.9153 10.1522C30.3926 10.1522 29.9766 10.3069 29.6673 10.6162C29.3579 10.9149 29.1393 11.3149 29.0113 11.8162C28.8833 12.3069 28.8193 12.8509 28.8193 13.4482C28.8193 14.0029 28.8833 14.5202 29.0113 15.0002C29.1499 15.4802 29.3739 15.8696 29.6833 16.1682C29.9926 16.4562 30.4033 16.6002 30.9153 16.6002ZM43.0034 17.1922C41.9047 17.1922 41.046 16.8456 40.4274 16.1522C39.8194 15.4482 39.5154 14.5202 39.5154 13.3682C39.5474 12.6322 39.7287 11.9816 40.0594 11.4162C40.4007 10.8509 40.8487 10.4082 41.4034 10.0882C41.9687 9.75758 42.5927 9.58158 43.2754 9.56024C43.6487 9.56024 44.0274 9.60824 44.4114 9.70424C44.806 9.78958 45.1314 9.95491 45.3874 10.2002C45.654 10.4349 45.7874 10.7762 45.7874 11.2242C45.7874 11.5336 45.6914 11.8216 45.4994 12.0882C45.3074 12.3442 45.0407 12.4722 44.6994 12.4722C44.4647 12.4722 44.2834 12.4136 44.1554 12.2962C44.0274 12.1789 43.9634 12.0936 43.9634 12.0402C43.9634 12.0189 44.006 11.9762 44.0914 11.9122C44.1874 11.8376 44.278 11.7416 44.3634 11.6242C44.4487 11.4962 44.4914 11.3416 44.4914 11.1602C44.4914 10.8189 44.3687 10.5682 44.1234 10.4082C43.878 10.2482 43.6007 10.1629 43.2914 10.1522C42.822 10.1522 42.4434 10.2482 42.1554 10.4402C41.878 10.6322 41.6647 10.8882 41.5154 11.2082C41.366 11.5176 41.2647 11.8589 41.2114 12.2322C41.1687 12.6056 41.1474 12.9682 41.1474 13.3202C41.1474 13.9069 41.238 14.4349 41.4194 14.9042C41.6007 15.3629 41.8567 15.7256 42.1874 15.9922C42.518 16.2589 42.9127 16.3922 43.3714 16.3922C43.8407 16.3922 44.2354 16.2909 44.5554 16.0882C44.8754 15.8856 45.1687 15.5869 45.4354 15.1922C45.51 15.0856 45.622 15.0749 45.7714 15.1602C45.846 15.2029 45.8994 15.2616 45.9314 15.3362C45.9634 15.4109 45.9527 15.4856 45.8994 15.5602C45.5474 16.0616 45.11 16.4616 44.5874 16.7602C44.0647 17.0482 43.5367 17.1922 43.0034 17.1922ZM50.8371 17.1922C50.0905 17.1922 49.4345 17.0162 48.8691 16.6642C48.3145 16.3122 47.8825 15.8536 47.5731 15.2882C47.2638 14.7229 47.1091 14.1202 47.1091 13.4802C47.1091 12.8509 47.2211 12.2909 47.4451 11.8002C47.6691 11.3096 47.9625 10.8989 48.3251 10.5682C48.6985 10.2376 49.1038 9.98691 49.5411 9.81624C49.9785 9.64558 50.4105 9.56024 50.8371 9.56024C51.5838 9.56024 52.2345 9.73624 52.7891 10.0882C53.3545 10.4402 53.7918 10.8989 54.1011 11.4642C54.4105 12.0296 54.5651 12.6322 54.5651 13.2722C54.5651 13.9016 54.4478 14.4616 54.2131 14.9522C53.9891 15.4429 53.6905 15.8536 53.3171 16.1842C52.9545 16.5149 52.5545 16.7656 52.1171 16.9362C51.6798 17.1069 51.2531 17.1922 50.8371 17.1922ZM50.8371 16.6002C51.3598 16.6002 51.7705 16.4456 52.0691 16.1362C52.3785 15.8269 52.5971 15.4216 52.7251 14.9202C52.8638 14.4082 52.9331 13.8589 52.9331 13.2722C52.9331 12.7069 52.8638 12.1896 52.7251 11.7202C52.5865 11.2509 52.3625 10.8722 52.0531 10.5842C51.7438 10.2962 51.3385 10.1522 50.8371 10.1522C50.3145 10.1522 49.8985 10.3069 49.5891 10.6162C49.2798 10.9149 49.0611 11.3149 48.9331 11.8162C48.8051 12.3069 48.7411 12.8509 48.7411 13.4482C48.7411 14.0029 48.8051 14.5202 48.9331 15.0002C49.0718 15.4802 49.2958 15.8696 49.6051 16.1682C49.9145 16.4562 50.3251 16.6002 50.8371 16.6002ZM55.925 17.0482C55.8503 17.0482 55.7863 17.0162 55.733 16.9522C55.6903 16.8776 55.669 16.8029 55.669 16.7282C55.6797 16.5682 55.717 16.4829 55.781 16.4722C55.8557 16.4509 55.941 16.4402 56.037 16.4402C56.3357 16.4402 56.5383 16.3922 56.645 16.2962C56.7623 16.1896 56.8263 16.0509 56.837 15.8802C56.8583 15.7096 56.869 15.5336 56.869 15.3522V11.6882C56.869 11.4962 56.8583 11.3202 56.837 11.1602C56.8263 10.9896 56.7677 10.8562 56.661 10.7602C56.5543 10.6536 56.3517 10.6002 56.053 10.6002C55.957 10.6002 55.8663 10.5896 55.781 10.5682C55.7063 10.5362 55.669 10.4402 55.669 10.2802C55.669 10.1202 55.7543 10.0242 55.925 9.99224C56.4157 9.91758 56.789 9.84291 57.045 9.76824C57.3117 9.69358 57.509 9.62958 57.637 9.57624C57.7757 9.52291 57.8983 9.49091 58.005 9.48024C58.0903 9.46958 58.1597 9.48558 58.213 9.52824C58.277 9.57091 58.309 9.65624 58.309 9.78424V10.7922H58.357C58.5703 10.5896 58.7783 10.3976 58.981 10.2162C59.1837 10.0242 59.429 9.86958 59.717 9.75224C60.005 9.62424 60.373 9.56024 60.821 9.56024C61.3437 9.56024 61.7917 9.67224 62.165 9.89624C62.5383 10.1096 62.8103 10.4082 62.981 10.7922H63.013C63.2263 10.5896 63.4503 10.3976 63.685 10.2162C63.9197 10.0242 64.197 9.86958 64.517 9.75224C64.837 9.62424 65.221 9.56024 65.669 9.56024C66.3943 9.56024 66.9703 9.77891 67.397 10.2162C67.8237 10.6536 68.037 11.2296 68.037 11.9442V15.3522C68.037 15.5336 68.0423 15.7096 68.053 15.8802C68.0743 16.0509 68.1383 16.1896 68.245 16.2962C68.3623 16.3922 68.5703 16.4402 68.869 16.4402C68.965 16.4402 69.045 16.4509 69.109 16.4722C69.1837 16.4829 69.2263 16.5682 69.237 16.7282C69.237 16.8029 69.2157 16.8776 69.173 16.9522C69.1303 17.0162 69.0663 17.0482 68.981 17.0482C68.6717 17.0269 68.3837 17.0109 68.117 17.0002C67.861 17.0002 67.589 17.0002 67.301 17.0002C67.013 17.0002 66.741 17.0002 66.485 17.0002C66.229 17.0109 65.9463 17.0269 65.637 17.0482C65.5517 17.0482 65.4877 17.0162 65.445 16.9522C65.4023 16.8776 65.381 16.8029 65.381 16.7282C65.3917 16.5682 65.429 16.4829 65.493 16.4722C65.5677 16.4509 65.653 16.4402 65.749 16.4402C66.0477 16.4402 66.2503 16.3922 66.357 16.2962C66.4743 16.1896 66.5383 16.0509 66.549 15.8802C66.5703 15.7096 66.581 15.5336 66.581 15.3522V11.9602C66.581 11.6082 66.501 11.3202 66.341 11.0962C66.1917 10.8722 65.9997 10.7069 65.765 10.6002C65.5303 10.4936 65.2903 10.4402 65.045 10.4402C64.6823 10.4402 64.373 10.5096 64.117 10.6482C63.861 10.7762 63.6583 10.9256 63.509 11.0962C63.3597 11.2669 63.253 11.4162 63.189 11.5442V15.3522C63.189 15.5336 63.189 15.7096 63.189 15.8802C63.1997 16.0509 63.253 16.1896 63.349 16.2962C63.4557 16.3922 63.6583 16.4402 63.957 16.4402C64.0637 16.4402 64.149 16.4509 64.213 16.4722C64.277 16.4829 64.3143 16.5682 64.325 16.7282C64.325 16.8029 64.3037 16.8776 64.261 16.9522C64.2183 17.0162 64.1543 17.0482 64.069 17.0482C63.7597 17.0269 63.4823 17.0109 63.237 17.0002C62.9917 17.0002 62.725 17.0002 62.437 17.0002C62.1597 17.0002 61.8983 17.0002 61.653 17.0002C61.4183 17.0109 61.1463 17.0269 60.837 17.0482C60.7517 17.0482 60.6877 17.0162 60.645 16.9522C60.6023 16.8776 60.581 16.8029 60.581 16.7282C60.5917 16.5682 60.629 16.4829 60.693 16.4722C60.757 16.4509 60.8423 16.4402 60.949 16.4402C61.2477 16.4402 61.445 16.3922 61.541 16.2962C61.6477 16.1896 61.701 16.0509 61.701 15.8802C61.7117 15.7096 61.717 15.5336 61.717 15.3522V11.9602C61.717 11.4269 61.557 11.0429 61.237 10.8082C60.917 10.5629 60.5703 10.4402 60.197 10.4402C59.8237 10.4402 59.509 10.5096 59.253 10.6482C58.997 10.7762 58.7943 10.9256 58.645 11.0962C58.4957 11.2669 58.389 11.4162 58.325 11.5442V15.3522C58.325 15.5336 58.3303 15.7096 58.341 15.8802C58.3623 16.0509 58.4263 16.1896 58.533 16.2962C58.6503 16.3922 58.8583 16.4402 59.157 16.4402C59.253 16.4402 59.333 16.4509 59.397 16.4722C59.4717 16.4829 59.5143 16.5682 59.525 16.7282C59.525 16.8029 59.5037 16.8776 59.461 16.9522C59.4183 17.0162 59.3543 17.0482 59.269 17.0482C58.9597 17.0269 58.6717 17.0109 58.405 17.0002C58.149 17.0002 57.877 17.0002 57.589 17.0002C57.301 17.0002 57.029 17.0002 56.773 17.0002C56.517 17.0109 56.2343 17.0269 55.925 17.0482Z" fill="#333333"/>
<path d="M89 9.87524C89 14.2502 82.5131 17.7915 82.2369 17.9377C82.1641 17.9769 82.0827 17.9974 82 17.9974C81.9173 17.9974 81.8359 17.9769 81.7631 17.9377C81.4869 17.7915 75 14.2502 75 9.87524C75.0012 8.84789 75.4098 7.86294 76.1362 7.13648C76.8627 6.41003 77.8476 6.0014 78.875 6.00024C80.1656 6.00024 81.2956 6.55524 82 7.49337C82.7044 6.55524 83.8344 6.00024 85.125 6.00024C86.1524 6.0014 87.1373 6.41003 87.8638 7.13648C88.5902 7.86294 88.9988 8.84789 89 9.87524Z" fill="#333333"/>
<path d="M94.624 20.3282C94.5493 20.3282 94.4853 20.2909 94.432 20.2162C94.3893 20.1522 94.368 20.0829 94.368 20.0082C94.3787 19.8482 94.416 19.7576 94.48 19.7362C94.5547 19.7256 94.64 19.7202 94.736 19.7202C95.024 19.7202 95.2213 19.6669 95.328 19.5602C95.4453 19.4642 95.5147 19.3309 95.536 19.1602C95.5573 18.9896 95.568 18.8136 95.568 18.6322V11.6882C95.568 11.4962 95.5573 11.3202 95.536 11.1602C95.5253 10.9896 95.4667 10.8562 95.36 10.7602C95.2533 10.6536 95.0507 10.6002 94.752 10.6002C94.656 10.6002 94.5653 10.5896 94.48 10.5682C94.4053 10.5362 94.368 10.4402 94.368 10.2802C94.368 10.1202 94.4533 10.0242 94.624 9.99224C95.1147 9.91758 95.488 9.84291 95.744 9.76824C96.0107 9.69358 96.208 9.62958 96.336 9.57624C96.4747 9.52291 96.5973 9.49091 96.704 9.48024C96.7893 9.46958 96.8587 9.48558 96.912 9.52824C96.976 9.57091 97.008 9.65624 97.008 9.78424V10.5522H97.056C97.3547 10.2749 97.712 10.0402 98.128 9.84824C98.544 9.65624 98.944 9.56024 99.328 9.56024C99.9787 9.56024 100.555 9.72024 101.056 10.0402C101.557 10.3602 101.952 10.8082 102.24 11.3842C102.528 11.9496 102.672 12.6109 102.672 13.3682C102.672 14.1362 102.496 14.8082 102.144 15.3842C101.792 15.9602 101.339 16.4082 100.784 16.7282C100.229 17.0376 99.6373 17.1922 99.008 17.1922C98.528 17.1922 98.1387 17.1389 97.84 17.0322C97.552 16.9362 97.3013 16.8242 97.088 16.6962H97.024V18.6322C97.024 18.8136 97.0347 18.9896 97.056 19.1602C97.0773 19.3309 97.1467 19.4642 97.264 19.5602C97.3813 19.6669 97.5787 19.7202 97.856 19.7202C97.952 19.7202 98.032 19.7256 98.096 19.7362C98.1707 19.7576 98.2133 19.8482 98.224 20.0082C98.224 20.0829 98.2027 20.1522 98.16 20.2162C98.1173 20.2909 98.0533 20.3282 97.968 20.3282C97.6587 20.3069 97.3707 20.2909 97.104 20.2802C96.848 20.2802 96.576 20.2802 96.288 20.2802C96 20.2802 95.728 20.2802 95.472 20.2802C95.216 20.2909 94.9333 20.3069 94.624 20.3282ZM98.88 16.6482C99.296 16.6482 99.6427 16.5469 99.92 16.3442C100.197 16.1309 100.416 15.8642 100.576 15.5442C100.747 15.2136 100.864 14.8616 100.928 14.4882C101.003 14.1042 101.04 13.7469 101.04 13.4162C101.04 12.9149 100.96 12.4349 100.8 11.9762C100.651 11.5069 100.405 11.1229 100.064 10.8242C99.7333 10.5149 99.296 10.3602 98.752 10.3602C98.3467 10.3602 98.0107 10.4456 97.744 10.6162C97.4773 10.7762 97.2373 10.9682 97.024 11.1922V15.4802C97.1413 15.7576 97.3547 16.0242 97.664 16.2802C97.984 16.5256 98.3893 16.6482 98.88 16.6482ZM107.744 17.1922C106.922 17.1922 106.229 17.0162 105.664 16.6642C105.109 16.3122 104.693 15.8429 104.416 15.2562C104.138 14.6696 104 14.0296 104 13.3362C104 12.8669 104.08 12.4136 104.24 11.9762C104.41 11.5282 104.65 11.1229 104.96 10.7602C105.269 10.3869 105.642 10.0936 106.08 9.88024C106.517 9.66691 107.013 9.56024 107.568 9.56024C108.549 9.56024 109.285 9.81624 109.776 10.3282C110.277 10.8296 110.565 11.4696 110.64 12.2482C110.64 12.6216 110.533 12.8669 110.32 12.9842C110.117 13.1016 109.85 13.1602 109.52 13.1602H105.632C105.632 13.7789 105.717 14.3336 105.888 14.8242C106.058 15.3042 106.325 15.6882 106.688 15.9762C107.061 16.2536 107.552 16.3922 108.16 16.3922C108.608 16.3922 108.992 16.2962 109.312 16.1042C109.632 15.9122 109.941 15.5762 110.24 15.0962C110.325 14.9896 110.442 14.9842 110.592 15.0802C110.677 15.1229 110.73 15.1922 110.752 15.2882C110.773 15.3736 110.762 15.4482 110.72 15.5122C110.389 16.0349 109.973 16.4456 109.472 16.7442C108.97 17.0429 108.394 17.1922 107.744 17.1922ZM105.632 12.5522H108.24C108.496 12.5522 108.698 12.5042 108.848 12.4082C109.008 12.3016 109.093 12.1256 109.104 11.8802C109.104 11.4216 108.976 11.0162 108.72 10.6642C108.474 10.3016 108.09 10.1202 107.568 10.1202C107.034 10.1202 106.586 10.3336 106.224 10.7602C105.872 11.1869 105.674 11.7842 105.632 12.5522ZM111.718 17.0482C111.643 17.0482 111.579 17.0162 111.526 16.9522C111.483 16.8776 111.462 16.8029 111.462 16.7282C111.472 16.5682 111.51 16.4829 111.574 16.4722C111.648 16.4509 111.734 16.4402 111.83 16.4402C112.128 16.4402 112.331 16.3922 112.438 16.2962C112.555 16.1896 112.619 16.0509 112.63 15.8802C112.651 15.7096 112.662 15.5336 112.662 15.3522V7.54424C112.662 7.35224 112.651 7.17624 112.63 7.01624C112.619 6.84558 112.56 6.71224 112.454 6.61624C112.347 6.50958 112.144 6.45624 111.846 6.45624C111.75 6.45624 111.659 6.44558 111.574 6.42424C111.499 6.39224 111.462 6.29624 111.462 6.13624C111.462 5.97624 111.547 5.88024 111.718 5.84824C112.208 5.77358 112.582 5.69891 112.838 5.62424C113.104 5.54958 113.307 5.48558 113.446 5.43224C113.584 5.37891 113.707 5.34691 113.814 5.33624C113.899 5.32558 113.968 5.34158 114.022 5.38424C114.086 5.42691 114.118 5.51224 114.118 5.64024V15.3522C114.118 15.5336 114.123 15.7096 114.134 15.8802C114.155 16.0509 114.219 16.1896 114.326 16.2962C114.443 16.3922 114.651 16.4402 114.95 16.4402C115.046 16.4402 115.126 16.4509 115.19 16.4722C115.264 16.4829 115.307 16.5682 115.318 16.7282C115.318 16.8029 115.296 16.8776 115.254 16.9522C115.211 17.0162 115.147 17.0482 115.062 17.0482C114.752 17.0269 114.464 17.0109 114.198 17.0002C113.942 17.0002 113.67 17.0002 113.382 17.0002C113.094 17.0002 112.822 17.0002 112.566 17.0002C112.31 17.0109 112.027 17.0269 111.718 17.0482ZM118.36 17.1922C117.709 17.1922 117.187 17.0056 116.792 16.6322C116.408 16.2589 116.216 15.8109 116.216 15.2882C116.216 14.7442 116.355 14.3176 116.632 14.0082C116.92 13.6989 117.293 13.4696 117.752 13.3202C118.221 13.1709 118.728 13.0696 119.272 13.0162C119.827 12.9629 120.365 12.9202 120.888 12.8882V11.6242C120.888 11.1229 120.76 10.7336 120.504 10.4562C120.259 10.1682 119.837 10.0242 119.24 10.0242C118.941 10.0242 118.659 10.1202 118.392 10.3122C118.136 10.5042 118.008 10.7816 118.008 11.1442C118.008 11.3149 118.051 11.4589 118.136 11.5762C118.221 11.6936 118.307 11.7842 118.392 11.8482C118.477 11.9122 118.52 11.9549 118.52 11.9762C118.52 12.0189 118.456 12.0989 118.328 12.2162C118.211 12.3229 118.045 12.3762 117.832 12.3762C117.501 12.3762 117.245 12.2536 117.064 12.0082C116.883 11.7629 116.792 11.4909 116.792 11.1922C116.792 10.7869 116.915 10.4669 117.16 10.2322C117.416 9.99758 117.741 9.82691 118.136 9.72024C118.531 9.61358 118.931 9.56024 119.336 9.56024C119.816 9.56024 120.28 9.61891 120.728 9.73624C121.187 9.85358 121.56 10.0776 121.848 10.4082C122.147 10.7389 122.296 11.2349 122.296 11.8962V15.6242C122.307 15.7309 122.333 15.8589 122.376 16.0082C122.419 16.1576 122.499 16.2909 122.616 16.4082C122.744 16.5149 122.915 16.5682 123.128 16.5682C123.203 16.5682 123.261 16.5842 123.304 16.6162C123.347 16.6376 123.368 16.7069 123.368 16.8242C123.368 16.9202 123.315 16.9949 123.208 17.0482C123.101 17.1016 122.979 17.1389 122.84 17.1602C122.701 17.1816 122.584 17.1922 122.488 17.1922C122.093 17.1922 121.741 17.0802 121.432 16.8562C121.123 16.6216 120.941 16.3016 120.888 15.8962C120.653 16.3229 120.301 16.6482 119.832 16.8722C119.373 17.0856 118.883 17.1922 118.36 17.1922ZM118.872 16.3282C119.235 16.3282 119.565 16.2376 119.864 16.0562C120.173 15.8749 120.419 15.6296 120.6 15.3202C120.792 15.0002 120.888 14.6482 120.888 14.2642V13.3522C119.789 13.4269 119.005 13.6029 118.536 13.8802C118.067 14.1576 117.832 14.6109 117.832 15.2402C117.832 15.9656 118.179 16.3282 118.872 16.3282ZM128.226 17.0482C128.119 17.0482 128.045 17.0109 128.002 16.9362C127.959 16.8616 127.938 16.7816 127.938 16.6962C127.949 16.5149 127.991 16.4136 128.066 16.3922C128.141 16.3709 128.231 16.3602 128.338 16.3602C128.679 16.3602 128.919 16.3016 129.058 16.1842C129.197 16.0562 129.282 15.9016 129.314 15.7202C129.357 15.5282 129.378 15.3309 129.378 15.1282V8.79224C129.378 8.58958 129.357 8.39224 129.314 8.20024C129.282 8.00824 129.197 7.85358 129.058 7.73624C128.919 7.60824 128.679 7.54424 128.338 7.54424C128.231 7.54424 128.141 7.53358 128.066 7.51224C127.991 7.49091 127.949 7.38958 127.938 7.20824C127.938 7.12291 127.959 7.04291 128.002 6.96824C128.045 6.89358 128.119 6.85624 128.226 6.85624C128.567 6.86691 128.887 6.87758 129.186 6.88824C129.495 6.89891 129.81 6.90424 130.13 6.90424H132.882C133.746 6.91491 134.445 7.04824 134.978 7.30424C135.522 7.56024 135.917 7.88558 136.162 8.28024C136.407 8.67491 136.53 9.08558 136.53 9.51224C136.53 10.0776 136.301 10.6109 135.842 11.1122C135.394 11.6136 134.759 11.9709 133.938 12.1842C134.343 12.8242 134.754 13.4696 135.17 14.1202C135.586 14.7602 136.066 15.3629 136.61 15.9282C136.759 16.0456 136.903 16.1416 137.042 16.2162C137.191 16.2909 137.367 16.3389 137.57 16.3602C137.655 16.3709 137.741 16.3869 137.826 16.4082C137.911 16.4189 137.959 16.5149 137.97 16.6962C137.97 16.7816 137.949 16.8616 137.906 16.9362C137.863 17.0109 137.789 17.0482 137.682 17.0482C137.458 17.0376 137.277 17.0269 137.138 17.0162C137.01 17.0162 136.882 17.0109 136.754 17.0002C136.626 17.0002 136.455 17.0002 136.242 17.0002C135.805 16.9149 135.431 16.7602 135.122 16.5362C134.823 16.3122 134.53 16.0029 134.242 15.6082C133.943 15.2029 133.666 14.7922 133.41 14.3762C133.154 13.9602 132.903 13.5549 132.658 13.1602C132.519 12.9362 132.375 12.7762 132.226 12.6802C132.087 12.5736 131.821 12.5202 131.426 12.5202H130.962V15.1282C130.973 15.3309 130.994 15.5282 131.026 15.7202C131.058 15.9016 131.143 16.0562 131.282 16.1842C131.431 16.3016 131.671 16.3602 132.002 16.3602C132.109 16.3602 132.199 16.3709 132.274 16.3922C132.349 16.4136 132.391 16.5149 132.402 16.6962C132.402 16.7816 132.381 16.8616 132.338 16.9362C132.295 17.0109 132.221 17.0482 132.114 17.0482C131.431 17.0162 130.765 17.0002 130.114 17.0002C129.794 17.0002 129.485 17.0002 129.186 17.0002C128.887 17.0109 128.567 17.0269 128.226 17.0482ZM130.962 11.8962H132.37C132.914 11.8962 133.341 11.8216 133.65 11.6722C133.97 11.5229 134.21 11.3309 134.37 11.0962C134.53 10.8616 134.631 10.6162 134.674 10.3602C134.727 10.1042 134.754 9.86958 134.754 9.65624C134.754 9.30424 134.674 8.96291 134.514 8.63224C134.365 8.30158 134.093 8.02958 133.698 7.81624C133.314 7.60291 132.775 7.49624 132.082 7.49624C131.623 7.49624 131.319 7.58691 131.17 7.76824C131.031 7.93891 130.962 8.29091 130.962 8.82424V11.8962ZM141.993 17.1922C141.247 17.1922 140.591 17.0162 140.025 16.6642C139.471 16.3122 139.039 15.8536 138.729 15.2882C138.42 14.7229 138.265 14.1202 138.265 13.4802C138.265 12.8509 138.377 12.2909 138.601 11.8002C138.825 11.3096 139.119 10.8989 139.481 10.5682C139.855 10.2376 140.26 9.98691 140.697 9.81624C141.135 9.64558 141.567 9.56024 141.993 9.56024C142.74 9.56024 143.391 9.73624 143.945 10.0882C144.511 10.4402 144.948 10.8989 145.257 11.4642C145.567 12.0296 145.721 12.6322 145.721 13.2722C145.721 13.9016 145.604 14.4616 145.369 14.9522C145.145 15.4429 144.847 15.8536 144.473 16.1842C144.111 16.5149 143.711 16.7656 143.273 16.9362C142.836 17.1069 142.409 17.1922 141.993 17.1922ZM141.993 16.6002C142.516 16.6002 142.927 16.4456 143.225 16.1362C143.535 15.8269 143.753 15.4216 143.881 14.9202C144.02 14.4082 144.089 13.8589 144.089 13.2722C144.089 12.7069 144.02 12.1896 143.881 11.7202C143.743 11.2509 143.519 10.8722 143.209 10.5842C142.9 10.2962 142.495 10.1522 141.993 10.1522C141.471 10.1522 141.055 10.3069 140.745 10.6162C140.436 10.9149 140.217 11.3149 140.089 11.8162C139.961 12.3069 139.897 12.8509 139.897 13.4482C139.897 14.0029 139.961 14.5202 140.089 15.0002C140.228 15.4802 140.452 15.8696 140.761 16.1682C141.071 16.4562 141.481 16.6002 141.993 16.6002ZM150.519 17.1922C149.42 17.1922 148.562 16.8456 147.943 16.1522C147.335 15.4482 147.031 14.5202 147.031 13.3682C147.063 12.6322 147.244 11.9816 147.575 11.4162C147.916 10.8509 148.364 10.4082 148.919 10.0882C149.484 9.75758 150.108 9.58158 150.791 9.56024C151.164 9.56024 151.543 9.60824 151.927 9.70424C152.322 9.78958 152.647 9.95491 152.903 10.2002C153.17 10.4349 153.303 10.7762 153.303 11.2242C153.303 11.5336 153.207 11.8216 153.015 12.0882C152.823 12.3442 152.556 12.4722 152.215 12.4722C151.98 12.4722 151.799 12.4136 151.671 12.2962C151.543 12.1789 151.479 12.0936 151.479 12.0402C151.479 12.0189 151.522 11.9762 151.607 11.9122C151.703 11.8376 151.794 11.7416 151.879 11.6242C151.964 11.4962 152.007 11.3416 152.007 11.1602C152.007 10.8189 151.884 10.5682 151.639 10.4082C151.394 10.2482 151.116 10.1629 150.807 10.1522C150.338 10.1522 149.959 10.2482 149.671 10.4402C149.394 10.6322 149.18 10.8882 149.031 11.2082C148.882 11.5176 148.78 11.8589 148.727 12.2322C148.684 12.6056 148.663 12.9682 148.663 13.3202C148.663 13.9069 148.754 14.4349 148.935 14.9042C149.116 15.3629 149.372 15.7256 149.703 15.9922C150.034 16.2589 150.428 16.3922 150.887 16.3922C151.356 16.3922 151.751 16.2909 152.071 16.0882C152.391 15.8856 152.684 15.5869 152.951 15.1922C153.026 15.0856 153.138 15.0749 153.287 15.1602C153.362 15.2029 153.415 15.2616 153.447 15.3362C153.479 15.4109 153.468 15.4856 153.415 15.5602C153.063 16.0616 152.626 16.4616 152.103 16.7602C151.58 17.0482 151.052 17.1922 150.519 17.1922ZM154.593 17.0482C154.507 17.0482 154.443 17.0162 154.401 16.9522C154.358 16.8776 154.337 16.8029 154.337 16.7282C154.347 16.5682 154.385 16.4829 154.449 16.4722C154.523 16.4509 154.609 16.4402 154.705 16.4402C155.003 16.4402 155.206 16.3922 155.313 16.2962C155.43 16.1896 155.494 16.0509 155.505 15.8802C155.526 15.7096 155.537 15.5336 155.537 15.3522V7.56024C155.537 7.36824 155.526 7.19224 155.505 7.03224C155.494 6.86158 155.435 6.72824 155.329 6.63224C155.222 6.52558 155.019 6.47224 154.721 6.47224C154.625 6.47224 154.534 6.46158 154.449 6.44024C154.374 6.40824 154.337 6.31224 154.337 6.15224C154.337 5.99224 154.422 5.89624 154.593 5.86424C155.083 5.78958 155.457 5.71491 155.713 5.64024C155.979 5.56558 156.182 5.50158 156.321 5.44824C156.459 5.39491 156.582 5.36291 156.689 5.35224C156.774 5.34158 156.843 5.35758 156.897 5.40024C156.961 5.44291 156.993 5.52824 156.993 5.65624V12.9682C157.462 12.8722 157.846 12.6749 158.145 12.3762L159.489 11.0002C159.553 10.9256 159.622 10.8456 159.697 10.7602C159.782 10.6749 159.83 10.5949 159.841 10.5202C159.862 10.4456 159.819 10.3869 159.713 10.3442C159.606 10.3016 159.403 10.2909 159.105 10.3122C158.987 10.2909 158.923 10.1949 158.913 10.0242C158.913 9.93891 158.934 9.86424 158.977 9.80024C159.03 9.73624 159.094 9.70424 159.169 9.70424C159.414 9.71491 159.707 9.72558 160.049 9.73624C160.401 9.74691 160.694 9.75224 160.929 9.75224C161.11 9.75224 161.286 9.74691 161.457 9.73624C161.638 9.72558 161.819 9.71491 162.001 9.70424C162.086 9.70424 162.15 9.73624 162.193 9.80024C162.235 9.86424 162.257 9.93891 162.257 10.0242C162.246 10.1629 162.214 10.2482 162.161 10.2802C162.118 10.3016 162.059 10.3122 161.985 10.3122C161.569 10.3122 161.233 10.3869 160.977 10.5362C160.721 10.6856 160.433 10.9256 160.113 11.2562L158.769 12.6322C158.897 12.8029 159.067 13.0109 159.281 13.2562C159.494 13.5016 159.718 13.7629 159.953 14.0402C160.198 14.3069 160.427 14.5629 160.641 14.8082C160.854 15.0429 161.025 15.2349 161.153 15.3842C161.462 15.7149 161.718 15.9709 161.921 16.1522C162.134 16.3229 162.395 16.4189 162.705 16.4402C162.79 16.4509 162.87 16.4669 162.945 16.4882C163.019 16.4989 163.057 16.5789 163.057 16.7282C163.057 16.8029 163.035 16.8776 162.993 16.9522C162.961 17.0162 162.897 17.0482 162.801 17.0482C162.651 17.0376 162.529 17.0269 162.433 17.0162C162.337 17.0162 162.23 17.0109 162.113 17.0002C161.995 17.0002 161.825 17.0002 161.601 17.0002C161.387 17.0002 161.078 17.0002 160.673 17.0002C160.299 16.5949 159.867 16.1096 159.377 15.5442C158.897 14.9789 158.417 14.4189 157.937 13.8642C157.83 13.7469 157.691 13.6402 157.521 13.5442C157.361 13.4376 157.185 13.3949 156.993 13.4162V15.3522C156.993 15.5336 156.998 15.7096 157.009 15.8802C157.03 16.0509 157.094 16.1896 157.201 16.2962C157.318 16.3922 157.521 16.4402 157.809 16.4402C157.915 16.4402 158.001 16.4509 158.065 16.4722C158.139 16.4829 158.182 16.5682 158.193 16.7282C158.193 16.8029 158.171 16.8776 158.129 16.9522C158.086 17.0162 158.022 17.0482 157.937 17.0482C157.627 17.0269 157.339 17.0109 157.073 17.0002C156.806 17.0002 156.534 17.0002 156.257 17.0002C155.969 17.0002 155.697 17.0002 155.441 17.0002C155.185 17.0109 154.902 17.0269 154.593 17.0482ZM166.806 17.1922C165.985 17.1922 165.292 17.0162 164.726 16.6642C164.172 16.3122 163.756 15.8429 163.478 15.2562C163.201 14.6696 163.062 14.0296 163.062 13.3362C163.062 12.8669 163.142 12.4136 163.302 11.9762C163.473 11.5282 163.713 11.1229 164.022 10.7602C164.332 10.3869 164.705 10.0936 165.142 9.88024C165.58 9.66691 166.076 9.56024 166.63 9.56024C167.612 9.56024 168.348 9.81624 168.838 10.3282C169.34 10.8296 169.628 11.4696 169.702 12.2482C169.702 12.6216 169.596 12.8669 169.382 12.9842C169.18 13.1016 168.913 13.1602 168.582 13.1602H164.694C164.694 13.7789 164.78 14.3336 164.95 14.8242C165.121 15.3042 165.388 15.6882 165.75 15.9762C166.124 16.2536 166.614 16.3922 167.222 16.3922C167.67 16.3922 168.054 16.2962 168.374 16.1042C168.694 15.9122 169.004 15.5762 169.302 15.0962C169.388 14.9896 169.505 14.9842 169.654 15.0802C169.74 15.1229 169.793 15.1922 169.814 15.2882C169.836 15.3736 169.825 15.4482 169.782 15.5122C169.452 16.0349 169.036 16.4456 168.534 16.7442C168.033 17.0429 167.457 17.1922 166.806 17.1922ZM164.694 12.5522H167.302C167.558 12.5522 167.761 12.5042 167.91 12.4082C168.07 12.3016 168.156 12.1256 168.166 11.8802C168.166 11.4216 168.038 11.0162 167.782 10.6642C167.537 10.3016 167.153 10.1202 166.63 10.1202C166.097 10.1202 165.649 10.3336 165.286 10.7602C164.934 11.1869 164.737 11.7842 164.694 12.5522ZM173.894 17.2722C173.574 17.2722 173.27 17.1922 172.982 17.0322C172.694 16.8722 172.454 16.6269 172.262 16.2962C172.08 15.9656 171.99 15.5496 171.99 15.0482V10.3442L171.062 10.3762C170.987 10.3762 170.928 10.3496 170.886 10.2962C170.854 10.2322 170.838 10.1629 170.838 10.0882C170.838 9.87491 170.912 9.75224 171.062 9.72024C171.456 9.64558 171.755 9.52291 171.958 9.35224C172.16 9.17091 172.315 8.95758 172.422 8.71224C172.539 8.46691 172.646 8.20024 172.742 7.91224C172.774 7.82691 172.822 7.77358 172.886 7.75224C172.95 7.72024 173.019 7.70424 173.094 7.70424C173.158 7.70424 173.227 7.72024 173.302 7.75224C173.387 7.78424 173.43 7.84291 173.43 7.92824L173.318 9.75224L175.19 9.64024C175.286 9.62958 175.35 9.65624 175.382 9.72024C175.414 9.78424 175.43 9.85891 175.43 9.94424C175.43 10.0509 175.408 10.1576 175.366 10.2642C175.334 10.3709 175.291 10.4242 175.238 10.4242L173.446 10.3762V15.2402C173.446 15.5496 173.51 15.8322 173.638 16.0882C173.776 16.3442 174.022 16.4722 174.374 16.4722C174.491 16.4722 174.624 16.4616 174.774 16.4402C174.923 16.4189 175.083 16.3709 175.254 16.2962C175.296 16.2749 175.339 16.2589 175.382 16.2482C175.424 16.2269 175.467 16.2162 175.51 16.2162C175.595 16.2162 175.659 16.2536 175.702 16.3282C175.744 16.3922 175.782 16.4616 175.814 16.5362C175.846 16.6322 175.819 16.7069 175.734 16.7602C175.403 16.9736 175.099 17.1122 174.822 17.1762C174.544 17.2402 174.235 17.2722 173.894 17.2722ZM179.988 17.1922C179.167 17.1922 178.479 17.0482 177.924 16.7602C177.38 16.4616 177.108 16.0349 177.108 15.4802C177.108 15.1709 177.199 14.9202 177.38 14.7282C177.572 14.5362 177.817 14.4402 178.116 14.4402C178.308 14.4402 178.463 14.4936 178.58 14.6002C178.708 14.6962 178.772 14.7656 178.772 14.8082C178.772 14.8402 178.708 14.9149 178.58 15.0322C178.463 15.1389 178.404 15.3149 178.404 15.5602C178.404 15.8589 178.543 16.1096 178.82 16.3122C179.108 16.5042 179.54 16.6002 180.116 16.6002C180.617 16.6002 181.007 16.4936 181.284 16.2802C181.572 16.0562 181.716 15.7469 181.716 15.3522C181.716 15.0322 181.609 14.7869 181.396 14.6162C181.193 14.4349 180.927 14.2909 180.596 14.1842C180.276 14.0776 179.929 13.9709 179.556 13.8642C179.193 13.7576 178.847 13.6242 178.516 13.4642C178.185 13.3042 177.913 13.0856 177.7 12.8082C177.497 12.5202 177.396 12.1416 177.396 11.6722C177.396 11.1922 177.54 10.7976 177.828 10.4882C178.116 10.1789 178.484 9.94958 178.932 9.80024C179.38 9.64024 179.833 9.56024 180.292 9.56024C180.687 9.56024 181.06 9.61891 181.412 9.73624C181.764 9.84291 182.052 10.0082 182.276 10.2322C182.511 10.4562 182.628 10.7389 182.628 11.0802C182.628 11.3469 182.543 11.5869 182.372 11.8002C182.201 12.0136 181.967 12.1202 181.668 12.1202C181.476 12.1202 181.316 12.0722 181.188 11.9762C181.071 11.8696 181.012 11.7949 181.012 11.7522C181.012 11.7309 181.049 11.6936 181.124 11.6402C181.209 11.5762 181.289 11.4962 181.364 11.4002C181.439 11.2936 181.476 11.1602 181.476 11.0002C181.455 10.6909 181.305 10.4616 181.028 10.3122C180.751 10.1629 180.441 10.0882 180.1 10.0882C179.727 10.0882 179.38 10.1789 179.06 10.3602C178.74 10.5416 178.58 10.8029 178.58 11.1442C178.58 11.4536 178.644 11.6936 178.772 11.8642C178.911 12.0349 179.124 12.1842 179.412 12.3122C179.711 12.4296 180.095 12.5629 180.564 12.7122C181.033 12.8616 181.444 13.0162 181.796 13.1762C182.159 13.3362 182.436 13.5496 182.628 13.8162C182.831 14.0722 182.932 14.4242 182.932 14.8722C182.932 15.3202 182.804 15.7202 182.548 16.0722C182.292 16.4242 181.94 16.7016 181.492 16.9042C181.055 17.0962 180.553 17.1922 179.988 17.1922ZM187.994 17.1922C187.172 17.1922 186.479 17.0162 185.914 16.6642C185.359 16.3122 184.943 15.8429 184.666 15.2562C184.388 14.6696 184.25 14.0296 184.25 13.3362C184.25 12.8669 184.33 12.4136 184.49 11.9762C184.66 11.5282 184.9 11.1229 185.21 10.7602C185.519 10.3869 185.892 10.0936 186.33 9.88024C186.767 9.66691 187.263 9.56024 187.818 9.56024C188.799 9.56024 189.535 9.81624 190.026 10.3282C190.527 10.8296 190.815 11.4696 190.89 12.2482C190.89 12.6216 190.783 12.8669 190.57 12.9842C190.367 13.1016 190.1 13.1602 189.77 13.1602H185.882C185.882 13.7789 185.967 14.3336 186.138 14.8242C186.308 15.3042 186.575 15.6882 186.938 15.9762C187.311 16.2536 187.802 16.3922 188.41 16.3922C188.858 16.3922 189.242 16.2962 189.562 16.1042C189.882 15.9122 190.191 15.5762 190.49 15.0962C190.575 14.9896 190.692 14.9842 190.842 15.0802C190.927 15.1229 190.98 15.1922 191.002 15.2882C191.023 15.3736 191.012 15.4482 190.97 15.5122C190.639 16.0349 190.223 16.4456 189.722 16.7442C189.22 17.0429 188.644 17.1922 187.994 17.1922ZM185.882 12.5522H188.49C188.746 12.5522 188.948 12.5042 189.098 12.4082C189.258 12.3016 189.343 12.1256 189.354 11.8802C189.354 11.4216 189.226 11.0162 188.97 10.6642C188.724 10.3016 188.34 10.1202 187.818 10.1202C187.284 10.1202 186.836 10.3336 186.474 10.7602C186.122 11.1869 185.924 11.7842 185.882 12.5522ZM194.313 17.1922C193.662 17.1922 193.14 17.0056 192.745 16.6322C192.361 16.2589 192.169 15.8109 192.169 15.2882C192.169 14.7442 192.308 14.3176 192.585 14.0082C192.873 13.6989 193.246 13.4696 193.705 13.3202C194.174 13.1709 194.681 13.0696 195.225 13.0162C195.78 12.9629 196.318 12.9202 196.841 12.8882V11.6242C196.841 11.1229 196.713 10.7336 196.457 10.4562C196.212 10.1682 195.79 10.0242 195.193 10.0242C194.894 10.0242 194.612 10.1202 194.345 10.3122C194.089 10.5042 193.961 10.7816 193.961 11.1442C193.961 11.3149 194.004 11.4589 194.089 11.5762C194.174 11.6936 194.26 11.7842 194.345 11.8482C194.43 11.9122 194.473 11.9549 194.473 11.9762C194.473 12.0189 194.409 12.0989 194.281 12.2162C194.164 12.3229 193.998 12.3762 193.785 12.3762C193.454 12.3762 193.198 12.2536 193.017 12.0082C192.836 11.7629 192.745 11.4909 192.745 11.1922C192.745 10.7869 192.868 10.4669 193.113 10.2322C193.369 9.99758 193.694 9.82691 194.089 9.72024C194.484 9.61358 194.884 9.56024 195.289 9.56024C195.769 9.56024 196.233 9.61891 196.681 9.73624C197.14 9.85358 197.513 10.0776 197.801 10.4082C198.1 10.7389 198.249 11.2349 198.249 11.8962V15.6242C198.26 15.7309 198.286 15.8589 198.329 16.0082C198.372 16.1576 198.452 16.2909 198.569 16.4082C198.697 16.5149 198.868 16.5682 199.081 16.5682C199.156 16.5682 199.214 16.5842 199.257 16.6162C199.3 16.6376 199.321 16.7069 199.321 16.8242C199.321 16.9202 199.268 16.9949 199.161 17.0482C199.054 17.1016 198.932 17.1389 198.793 17.1602C198.654 17.1816 198.537 17.1922 198.441 17.1922C198.046 17.1922 197.694 17.0802 197.385 16.8562C197.076 16.6216 196.894 16.3016 196.841 15.8962C196.606 16.3229 196.254 16.6482 195.785 16.8722C195.326 17.0856 194.836 17.1922 194.313 17.1922ZM194.825 16.3282C195.188 16.3282 195.518 16.2376 195.817 16.0562C196.126 15.8749 196.372 15.6296 196.553 15.3202C196.745 15.0002 196.841 14.6482 196.841 14.2642V13.3522C195.742 13.4269 194.958 13.6029 194.489 13.8802C194.02 14.1576 193.785 14.6109 193.785 15.2402C193.785 15.9656 194.132 16.3282 194.825 16.3282ZM202.987 17.2722C202.667 17.2722 202.363 17.1922 202.075 17.0322C201.787 16.8722 201.547 16.6269 201.355 16.2962C201.174 15.9656 201.083 15.5496 201.083 15.0482V10.3442L200.155 10.3762C200.081 10.3762 200.022 10.3496 199.979 10.2962C199.947 10.2322 199.931 10.1629 199.931 10.0882C199.931 9.87491 200.006 9.75224 200.155 9.72024C200.55 9.64558 200.849 9.52291 201.051 9.35224C201.254 9.17091 201.409 8.95758 201.515 8.71224C201.633 8.46691 201.739 8.20024 201.835 7.91224C201.867 7.82691 201.915 7.77358 201.979 7.75224C202.043 7.72024 202.113 7.70424 202.187 7.70424C202.251 7.70424 202.321 7.72024 202.395 7.75224C202.481 7.78424 202.523 7.84291 202.523 7.92824L202.411 9.75224L204.283 9.64024C204.379 9.62958 204.443 9.65624 204.475 9.72024C204.507 9.78424 204.523 9.85891 204.523 9.94424C204.523 10.0509 204.502 10.1576 204.459 10.2642C204.427 10.3709 204.385 10.4242 204.331 10.4242L202.539 10.3762V15.2402C202.539 15.5496 202.603 15.8322 202.731 16.0882C202.87 16.3442 203.115 16.4722 203.467 16.4722C203.585 16.4722 203.718 16.4616 203.867 16.4402C204.017 16.4189 204.177 16.3709 204.347 16.2962C204.39 16.2749 204.433 16.2589 204.475 16.2482C204.518 16.2269 204.561 16.2162 204.603 16.2162C204.689 16.2162 204.753 16.2536 204.795 16.3282C204.838 16.3922 204.875 16.4616 204.907 16.5362C204.939 16.6322 204.913 16.7069 204.827 16.7602C204.497 16.9736 204.193 17.1122 203.915 17.1762C203.638 17.2402 203.329 17.2722 202.987 17.2722Z" fill="#333333"/>
</svg>
